<svg width="69" height="29" viewBox="0 0 69 29" fill="none" xmlns="http://www.w3.org/2000/svg">
<path d="M21 8.32007L24 8.82007" stroke="#2364EF" stroke-width="2.5" stroke-linecap="round"/>
<path d="M24 8.82007L26.5 14.32" stroke="#2364EF" stroke-width="2.5" stroke-linecap="round"/>
<path d="M26.5 14.3201L30.5 3.32007" stroke="#2364EF" stroke-width="2.5" stroke-linecap="round"/>
<path d="M30.5 3.32007L33.5 9.32007" stroke="#2364EF" stroke-width="2.5" stroke-linecap="round"/>
<path d="M33.5 9.32007L36 8.32007" stroke="#2364EF" stroke-width="2.5" stroke-linecap="round"/>
<path d="M6.00734 13.4461C5.08334 13.4461 4.25534 13.2961 3.52334 12.9961C2.79134 12.6961 2.20334 12.2521 1.75934 11.6641C1.32734 11.0761 1.09934 10.3681 1.07534 9.54007H4.35134C4.39934 10.0081 4.56134 10.3681 4.83734 10.6201C5.11334 10.8601 5.47334 10.9801 5.91734 10.9801C6.37334 10.9801 6.73334 10.8781 6.99734 10.6741C7.26134 10.4581 7.39334 10.1641 7.39334 9.79207C7.39334 9.48007 7.28534 9.22207 7.06934 9.01807C6.86534 8.81407 6.60734 8.64607 6.29534 8.51407C5.99534 8.38207 5.56334 8.23207 4.99934 8.06407C4.18334 7.81207 3.51734 7.56007 3.00134 7.30807C2.48534 7.05607 2.04134 6.68407 1.66934 6.19207C1.29734 5.70007 1.11134 5.05807 1.11134 4.26607C1.11134 3.09007 1.53734 2.17207 2.38934 1.51207C3.24134 0.840068 4.35134 0.504068 5.71934 0.504068C7.11134 0.504068 8.23334 0.840068 9.08534 1.51207C9.93734 2.17207 10.3933 3.09607 10.4533 4.28407H7.12334C7.09934 3.87607 6.94934 3.55807 6.67334 3.33007C6.39734 3.09007 6.04334 2.97007 5.61134 2.97007C5.23934 2.97007 4.93934 3.07207 4.71134 3.27607C4.48334 3.46807 4.36934 3.75007 4.36934 4.12207C4.36934 4.53007 4.56134 4.84807 4.94534 5.07607C5.32934 5.30407 5.92934 5.55007 6.74534 5.81407C7.56134 6.09007 8.22134 6.35407 8.72534 6.60607C9.24134 6.85807 9.68534 7.22407 10.0573 7.70407C10.4293 8.18407 10.6153 8.80207 10.6153 9.55807C10.6153 10.2781 10.4293 10.9321 10.0573 11.5201C9.69734 12.1081 9.16934 12.5761 8.47334 12.9241C7.77734 13.2721 6.95534 13.4461 6.00734 13.4461ZM17.0816 13.4641C16.0976 13.4641 15.2096 13.2541 14.4176 12.8341C13.6376 12.4141 13.0196 11.8141 12.5636 11.0341C12.1196 10.2541 11.8976 9.34207 11.8976 8.29807C11.8976 7.26607 12.1256 6.36007 12.5816 5.58007C13.0376 4.78807 13.6616 4.18207 14.4536 3.76207C15.2456 3.34207 16.1336 3.13207 17.1176 3.13207C18.1016 3.13207 18.9896 3.34207 19.7816 3.76207C20.5736 4.18207 21.1976 4.78807 21.6536 5.58007C22.1096 6.36007 22.3376 7.26607 22.3376 8.29807C22.3376 9.33007 22.1036 10.2421 21.6356 11.0341C21.1796 11.8141 20.5496 12.4141 19.7456 12.8341C18.9536 13.2541 18.0656 13.4641 17.0816 13.4641ZM17.0816 10.8001C17.6696 10.8001 18.1676 10.5841 18.5756 10.1521C18.9956 9.72007 19.2056 9.10207 19.2056 8.29807C19.2056 7.49407 19.0016 6.87607 18.5936 6.44407C18.1976 6.01207 17.7056 5.79607 17.1176 5.79607C16.5176 5.79607 16.0196 6.01207 15.6236 6.44407C15.2276 6.86407 15.0296 7.48207 15.0296 8.29807C15.0296 9.10207 15.2216 9.72007 15.6056 10.1521C16.0016 10.5841 16.4936 10.8001 17.0816 10.8001ZM41.5339 3.16807C42.7099 3.16807 43.6459 3.55207 44.3419 4.32007C45.0499 5.07607 45.4039 6.12007 45.4039 7.45207V13.3201H42.3439V7.86607C42.3439 7.19407 42.1699 6.67207 41.8219 6.30007C41.4739 5.92807 41.0059 5.74207 40.4179 5.74207C39.8299 5.74207 39.3619 5.92807 39.0139 6.30007C38.6659 6.67207 38.4919 7.19407 38.4919 7.86607V13.3201H35.4139V3.27607H38.4919V4.60807C38.8039 4.16407 39.2239 3.81607 39.7519 3.56407C40.2799 3.30007 40.8739 3.16807 41.5339 3.16807ZM46.9308 8.28007C46.9308 7.24807 47.1228 6.34207 47.5068 5.56207C47.9028 4.78207 48.4368 4.18207 49.1088 3.76207C49.7808 3.34207 50.5308 3.13207 51.3588 3.13207C52.0188 3.13207 52.6188 3.27007 53.1588 3.54607C53.7108 3.82207 54.1428 4.19407 54.4548 4.66207V6.81877e-05H57.5328V13.3201H54.4548V11.8801C54.1668 12.3601 53.7528 12.7441 53.2128 13.0321C52.6848 13.3201 52.0668 13.4641 51.3588 13.4641C50.5308 13.4641 49.7808 13.2541 49.1088 12.8341C48.4368 12.4021 47.9028 11.7961 47.5068 11.0161C47.1228 10.2241 46.9308 9.31207 46.9308 8.28007ZM54.4548 8.29807C54.4548 7.53007 54.2388 6.92407 53.8068 6.48007C53.3868 6.03607 52.8708 5.81407 52.2588 5.81407C51.6468 5.81407 51.1248 6.03607 50.6928 6.48007C50.2728 6.91207 50.0628 7.51207 50.0628 8.28007C50.0628 9.04807 50.2728 9.66007 50.6928 10.1161C51.1248 10.5601 51.6468 10.7821 52.2588 10.7821C52.8708 10.7821 53.3868 10.5601 53.8068 10.1161C54.2388 9.67207 54.4548 9.06607 54.4548 8.29807ZM63.8456 13.4641C62.9696 13.4641 62.1896 13.3141 61.5056 13.0141C60.8216 12.7141 60.2816 12.3061 59.8856 11.7901C59.4896 11.2621 59.2676 10.6741 59.2196 10.0261H62.2616C62.2976 10.3741 62.4596 10.6561 62.7476 10.8721C63.0356 11.0881 63.3896 11.1961 63.8096 11.1961C64.1936 11.1961 64.4876 11.1241 64.6916 10.9801C64.9076 10.8241 65.0156 10.6261 65.0156 10.3861C65.0156 10.0981 64.8656 9.88807 64.5656 9.75607C64.2656 9.61207 63.7796 9.45607 63.1076 9.28807C62.3876 9.12007 61.7876 8.94607 61.3076 8.76607C60.8276 8.57407 60.4136 8.28007 60.0656 7.88407C59.7176 7.47607 59.5436 6.93007 59.5436 6.24607C59.5436 5.67007 59.6996 5.14807 60.0116 4.68007C60.3356 4.20007 60.8036 3.82207 61.4156 3.54607C62.0396 3.27007 62.7776 3.13207 63.6296 3.13207C64.8896 3.13207 65.8796 3.44407 66.5996 4.06807C67.3316 4.69207 67.7516 5.52007 67.8596 6.55207H65.0156C64.9676 6.20407 64.8116 5.92807 64.5476 5.72407C64.2956 5.52007 63.9596 5.41807 63.5396 5.41807C63.1796 5.41807 62.9036 5.49007 62.7116 5.63407C62.5196 5.76607 62.4236 5.95207 62.4236 6.19207C62.4236 6.48007 62.5736 6.69607 62.8736 6.84007C63.1856 6.98407 63.6656 7.12807 64.3136 7.27207C65.0576 7.46407 65.6636 7.65607 66.1316 7.84807C66.5996 8.02807 67.0076 8.32807 67.3556 8.74807C67.7156 9.15607 67.9016 9.70807 67.9136 10.4041C67.9136 10.9921 67.7456 11.5201 67.4096 11.9881C67.0856 12.4441 66.6116 12.8041 65.9876 13.0681C65.3756 13.3321 64.6616 13.4641 63.8456 13.4641ZM19.5792 18.6801C19.3512 18.2601 19.0212 17.9421 18.5892 17.7261C18.1692 17.4981 17.6712 17.3841 17.0952 17.3841C16.0992 17.3841 15.3012 17.7141 14.7012 18.3741C14.1012 19.0221 13.8012 19.8921 13.8012 20.9841C13.8012 22.1481 14.1132 23.0601 14.7372 23.7201C15.3732 24.3681 16.2432 24.6921 17.3472 24.6921C18.1032 24.6921 18.7392 24.5001 19.2552 24.1161C19.7832 23.7321 20.1672 23.1801 20.4072 22.4601H16.5012V20.1921H23.1972V23.0541C22.9692 23.8221 22.5792 24.5361 22.0272 25.1961C21.4872 25.8561 20.7972 26.3901 19.9572 26.7981C19.1172 27.2061 18.1692 27.4101 17.1132 27.4101C15.8652 27.4101 14.7492 27.1401 13.7652 26.6001C12.7932 26.0481 12.0312 25.2861 11.4792 24.3141C10.9392 23.3421 10.6692 22.2321 10.6692 20.9841C10.6692 19.7361 10.9392 18.6261 11.4792 17.6541C12.0312 16.6701 12.7932 15.9081 13.7652 15.3681C14.7372 14.8161 15.8472 14.5401 17.0952 14.5401C18.6072 14.5401 19.8792 14.9061 20.9112 15.6381C21.9552 16.3701 22.6452 17.3841 22.9812 18.6801H19.5792ZM29.4741 27.4641C28.4901 27.4641 27.6021 27.2541 26.8101 26.8341C26.0301 26.4141 25.4121 25.8141 24.9561 25.0341C24.5121 24.2541 24.2901 23.3421 24.2901 22.2981C24.2901 21.2661 24.5181 20.3601 24.9741 19.5801C25.4301 18.7881 26.0541 18.1821 26.8461 17.7621C27.6381 17.3421 28.5261 17.1321 29.5101 17.1321C30.4941 17.1321 31.3821 17.3421 32.1741 17.7621C32.9661 18.1821 33.5901 18.7881 34.0461 19.5801C34.5021 20.3601 34.7301 21.2661 34.7301 22.2981C34.7301 23.3301 34.4961 24.2421 34.0281 25.0341C33.5721 25.8141 32.9421 26.4141 32.1381 26.8341C31.3461 27.2541 30.4581 27.4641 29.4741 27.4641ZM29.4741 24.8001C30.0621 24.8001 30.5601 24.5841 30.9681 24.1521C31.3881 23.7201 31.5981 23.1021 31.5981 22.2981C31.5981 21.4941 31.3941 20.8761 30.9861 20.4441C30.5901 20.0121 30.0981 19.7961 29.5101 19.7961C28.9101 19.7961 28.4121 20.0121 28.0161 20.4441C27.6201 20.8641 27.4221 21.4821 27.4221 22.2981C27.4221 23.1021 27.6141 23.7201 27.9981 24.1521C28.3941 24.5841 28.8861 24.8001 29.4741 24.8001ZM40.9351 27.4641C39.9511 27.4641 39.0631 27.2541 38.2711 26.8341C37.4911 26.4141 36.8731 25.8141 36.4171 25.0341C35.9731 24.2541 35.7511 23.3421 35.7511 22.2981C35.7511 21.2661 35.9791 20.3601 36.4351 19.5801C36.8911 18.7881 37.5151 18.1821 38.3071 17.7621C39.0991 17.3421 39.9871 17.1321 40.9711 17.1321C41.9551 17.1321 42.8431 17.3421 43.6351 17.7621C44.4271 18.1821 45.0511 18.7881 45.5071 19.5801C45.9631 20.3601 46.1911 21.2661 46.1911 22.2981C46.1911 23.3301 45.9571 24.2421 45.4891 25.0341C45.0331 25.8141 44.4031 26.4141 43.5991 26.8341C42.8071 27.2541 41.9191 27.4641 40.9351 27.4641ZM40.9351 24.8001C41.5231 24.8001 42.0211 24.5841 42.4291 24.1521C42.8491 23.7201 43.0591 23.1021 43.0591 22.2981C43.0591 21.4941 42.8551 20.8761 42.4471 20.4441C42.0511 20.0121 41.5591 19.7961 40.9711 19.7961C40.3711 19.7961 39.8731 20.0121 39.4771 20.4441C39.0811 20.8641 38.8831 21.4821 38.8831 22.2981C38.8831 23.1021 39.0751 23.7201 39.4591 24.1521C39.8551 24.5841 40.3471 24.8001 40.9351 24.8001ZM47.212 22.2801C47.212 21.2481 47.404 20.3421 47.788 19.5621C48.184 18.7821 48.718 18.1821 49.39 17.7621C50.062 17.3421 50.812 17.1321 51.64 17.1321C52.3 17.1321 52.9 17.2701 53.44 17.5461C53.992 17.8221 54.424 18.1941 54.736 18.6621V14.0001H57.814V27.3201H54.736V25.8801C54.448 26.3601 54.034 26.7441 53.494 27.0321C52.966 27.3201 52.348 27.4641 51.64 27.4641C50.812 27.4641 50.062 27.2541 49.39 26.8341C48.718 26.4021 48.184 25.7961 47.788 25.0161C47.404 24.2241 47.212 23.3121 47.212 22.2801ZM54.736 22.2981C54.736 21.5301 54.52 20.9241 54.088 20.4801C53.668 20.0361 53.152 19.8141 52.54 19.8141C51.928 19.8141 51.406 20.0361 50.974 20.4801C50.554 20.9121 50.344 21.5121 50.344 22.2801C50.344 23.0481 50.554 23.6601 50.974 24.1161C51.406 24.5601 51.928 24.7821 52.54 24.7821C53.152 24.7821 53.668 24.5601 54.088 24.1161C54.52 23.6721 54.736 23.0661 54.736 22.2981Z" fill="white"/>
</svg>
